<svg id="visual" viewBox="0 0 900 600" width="900" height="600" xmlns="http://www.w3.org/2000/svg" xmlns:xlink="http://www.w3.org/1999/xlink" version="1.1"><g><g transform="translate(132 132)"><path d="M0 -65.7L56.9 -32.8L56.9 32.8L0 65.7L-56.9 32.8L-56.9 -32.8Z" fill="#0BA3AE"></path></g><g transform="translate(342 140)"><path d="M0 -22L19.1 -11L19.1 11L0 22L-19.1 11L-19.1 -11Z" fill="#0BA3AE"></path></g><g transform="translate(606 123)"><path d="M0 -37L32 -18.5L32 18.5L0 37L-32 18.5L-32 -18.5Z" fill="#0BA3AE"></path></g><g transform="translate(563 472)"><path d="M0 -14L12.1 -7L12.1 7L0 14L-12.1 7L-12.1 -7Z" fill="#0BA3AE"></path></g><g transform="translate(98 523)"><path d="M0 -43L37.2 -21.5L37.2 21.5L0 43L-37.2 21.5L-37.2 -21.5Z" fill="#0BA3AE"></path></g><g transform="translate(699 341)"><path d="M0 -21L18.2 -10.5L18.2 10.5L0 21L-18.2 10.5L-18.2 -10.5Z" fill="#0BA3AE"></path></g><g transform="translate(568 257)"><path d="M0 -52L45 -26L45 26L0 52L-45 26L-45 -26Z" fill="#0BA3AE"></path></g><g transform="translate(139 331)"><path d="M0 -34L29.4 -17L29.4 17L0 34L-29.4 17L-29.4 -17Z" fill="#0BA3AE"></path></g><g transform="translate(436 527)"><path d="M0 -34L29.4 -17L29.4 17L0 34L-29.4 17L-29.4 -17Z" fill="#0BA3AE"></path></g><g transform="translate(435 353)"><path d="M0 -37L32 -18.5L32 18.5L0 37L-32 18.5L-32 -18.5Z" fill="#0BA3AE"></path></g><g transform="translate(794 120)"><path d="M0 -11L9.5 -5.5L9.5 5.5L0 11L-9.5 5.5L-9.5 -5.5Z" fill="#0BA3AE"></path></g><g transform="translate(799 434)"><path d="M0 -10L8.7 -5L8.7 5L0 10L-8.7 5L-8.7 -5Z" fill="#0BA3AE"></path></g><g transform="translate(816 281)"><path d="M0 -56L48.5 -28L48.5 28L0 56L-48.5 28L-48.5 -28Z" fill="#0BA3AE"></path></g><g transform="translate(278 359)"><path d="M0 -38L32.9 -19L32.9 19L0 38L-32.9 19L-32.9 -19Z" fill="#0BA3AE"></path></g><g transform="translate(689 515)"><path d="M0 -57L49.4 -28.5L49.4 28.5L0 57L-49.4 28.5L-49.4 -28.5Z" fill="#0BA3AE"></path></g><g transform="translate(228 484)"><path d="M0 -40L34.6 -20L34.6 20L0 40L-34.6 20L-34.6 -20Z" fill="#0BA3AE"></path></g><g transform="translate(469 101)"><path d="M0 -59L51.1 -29.5L51.1 29.5L0 59L-51.1 29.5L-51.1 -29.5Z" fill="#0BA3AE"></path></g><g transform="translate(238 226)"><path d="M0 -21L18.2 -10.5L18.2 10.5L0 21L-18.2 10.5L-18.2 -10.5Z" fill="#0BA3AE"></path></g></g></svg>