<svg id="visual" viewBox="0 0 500 500" width="500" height="500" xmlns="http://www.w3.org/2000/svg" xmlns:xlink="http://www.w3.org/1999/xlink" version="1.1"><g stroke-width="1" stroke-linejoin="bevel"><path d="M272.7 264.7L233.3 278.7L267.7 326.2Z" fill="#0598a4" stroke="#0598a4"></path><path d="M233.3 278.7L233.3 312.2L267.7 326.2Z" fill="#0598a4" stroke="#0598a4"></path><path d="M267.7 326.2L316.2 316.2L272.7 264.7Z" fill="#008595" stroke="#008595"></path><path d="M316.2 316.2L315.2 264.7L272.7 264.7Z" fill="#0394a1" stroke="#0394a1"></path><path d="M225.3 371.6L275.7 364.6L267.7 326.2Z" fill="#0ba3ae" stroke="#0ba3ae"></path><path d="M267.7 326.2L316.2 360.6L316.2 316.2Z" fill="#008191" stroke="#008191"></path><path d="M317.2 226.3L264.7 218.3L272.7 264.7Z" fill="#0394a1" stroke="#0394a1"></path><path d="M272.7 264.7L219.3 222.3L233.3 278.7Z" fill="#069ba8" stroke="#069ba8"></path><path d="M219.3 222.3L183.8 273.7L233.3 278.7Z" fill="#008191" stroke="#008191"></path><path d="M233.3 278.7L183.8 273.7L233.3 312.2Z" fill="#099fab" stroke="#099fab"></path><path d="M233.3 312.2L225.3 371.6L267.7 326.2Z" fill="#0598a4" stroke="#0598a4"></path><path d="M264.7 218.3L219.3 222.3L272.7 264.7Z" fill="#008191" stroke="#008191"></path><path d="M186.8 359.6L225.3 371.6L233.3 312.2Z" fill="#018c9b" stroke="#018c9b"></path><path d="M183.8 273.7L177.8 313.2L233.3 312.2Z" fill="#008191" stroke="#008191"></path><path d="M355.6 364.6L316.2 360.6L313.2 409.1Z" fill="#0ba3ae" stroke="#0ba3ae"></path><path d="M275.7 364.6L316.2 360.6L267.7 326.2Z" fill="#0ba3ae" stroke="#0ba3ae"></path><path d="M364.6 219.3L317.2 226.3L315.2 264.7Z" fill="#008595" stroke="#008595"></path><path d="M315.2 264.7L317.2 226.3L272.7 264.7Z" fill="#008898" stroke="#008898"></path><path d="M359.6 277.7L315.2 264.7L316.2 316.2Z" fill="#069ba8" stroke="#069ba8"></path><path d="M316.2 360.6L354.6 312.2L316.2 316.2Z" fill="#0ba3ae" stroke="#0ba3ae"></path><path d="M177.8 313.2L186.8 359.6L233.3 312.2Z" fill="#008898" stroke="#008898"></path><path d="M354.6 312.2L359.6 277.7L316.2 316.2Z" fill="#008595" stroke="#008595"></path><path d="M221.3 185.8L189.8 221.3L219.3 222.3Z" fill="#0598a4" stroke="#0598a4"></path><path d="M219.3 222.3L189.8 221.3L183.8 273.7Z" fill="#0598a4" stroke="#0598a4"></path><path d="M183.8 273.7L138.4 269.7L177.8 313.2Z" fill="#0ba3ae" stroke="#0ba3ae"></path><path d="M267.7 176.8L221.3 185.8L264.7 218.3Z" fill="#008191" stroke="#008191"></path><path d="M264.7 218.3L221.3 185.8L219.3 222.3Z" fill="#069ba8" stroke="#069ba8"></path><path d="M313.2 409.1L316.2 360.6L275.7 364.6Z" fill="#007d8e" stroke="#007d8e"></path><path d="M316.2 360.6L355.6 364.6L354.6 312.2Z" fill="#008898" stroke="#008898"></path><path d="M354.6 312.2L405.1 270.7L359.6 277.7Z" fill="#0394a1" stroke="#0394a1"></path><path d="M312.2 185.8L267.7 176.8L264.7 218.3Z" fill="#0394a1" stroke="#0394a1"></path><path d="M234.3 414.1L275.7 364.6L225.3 371.6Z" fill="#007d8e" stroke="#007d8e"></path><path d="M234.3 414.1L273.7 413.1L275.7 364.6Z" fill="#02909e" stroke="#02909e"></path><path d="M317.2 226.3L312.2 185.8L264.7 218.3Z" fill="#069ba8" stroke="#069ba8"></path><path d="M364.6 219.3L312.2 185.8L317.2 226.3Z" fill="#0598a4" stroke="#0598a4"></path><path d="M177.8 407.1L234.3 414.1L225.3 371.6Z" fill="#018c9b" stroke="#018c9b"></path><path d="M134.4 222.3L138.4 269.7L189.8 221.3Z" fill="#007d8e" stroke="#007d8e"></path><path d="M189.8 221.3L138.4 269.7L183.8 273.7Z" fill="#0ba3ae" stroke="#0ba3ae"></path><path d="M177.8 313.2L133.4 354.6L186.8 359.6Z" fill="#099fab" stroke="#099fab"></path><path d="M273.7 413.1L313.2 409.1L275.7 364.6Z" fill="#0394a1" stroke="#0394a1"></path><path d="M405.1 270.7L364.6 219.3L359.6 277.7Z" fill="#099fab" stroke="#099fab"></path><path d="M359.6 277.7L364.6 219.3L315.2 264.7Z" fill="#0394a1" stroke="#0394a1"></path><path d="M138.4 269.7L133.4 312.2L177.8 313.2Z" fill="#0598a4" stroke="#0598a4"></path><path d="M186.8 359.6L177.8 407.1L225.3 371.6Z" fill="#008191" stroke="#008191"></path><path d="M133.4 354.6L177.8 407.1L186.8 359.6Z" fill="#008191" stroke="#008191"></path><path d="M133.4 312.2L133.4 354.6L177.8 313.2Z" fill="#018c9b" stroke="#018c9b"></path><path d="M414.1 321.2L405.1 270.7L354.6 312.2Z" fill="#007d8e" stroke="#007d8e"></path><path d="M173.8 173.8L134.4 222.3L189.8 221.3Z" fill="#0598a4" stroke="#0598a4"></path><path d="M138.4 269.7L97.9 275.7L133.4 312.2Z" fill="#018c9b" stroke="#018c9b"></path><path d="M221.3 185.8L173.8 173.8L189.8 221.3Z" fill="#008898" stroke="#008898"></path><path d="M230.3 140.4L173.8 173.8L221.3 185.8Z" fill="#008898" stroke="#008898"></path><path d="M410.1 366.6L414.1 321.2L355.6 364.6Z" fill="#099fab" stroke="#099fab"></path><path d="M355.6 364.6L414.1 321.2L354.6 312.2Z" fill="#0598a4" stroke="#0598a4"></path><path d="M313.2 445.5L366.6 409.1L313.2 409.1Z" fill="#008191" stroke="#008191"></path><path d="M313.2 409.1L366.6 409.1L355.6 364.6Z" fill="#02909e" stroke="#02909e"></path><path d="M276.7 131.4L230.3 140.4L267.7 176.8Z" fill="#0598a4" stroke="#0598a4"></path><path d="M267.7 176.8L230.3 140.4L221.3 185.8Z" fill="#008898" stroke="#008898"></path><path d="M279.7 453.5L313.2 445.5L273.7 413.1Z" fill="#0598a4" stroke="#0598a4"></path><path d="M273.7 413.1L313.2 445.5L313.2 409.1Z" fill="#008595" stroke="#008595"></path><path d="M279.7 453.5L273.7 413.1L234.3 414.1Z" fill="#069ba8" stroke="#069ba8"></path><path d="M405.1 183.8L367.6 175.8L364.6 219.3Z" fill="#0394a1" stroke="#0394a1"></path><path d="M364.6 219.3L367.6 175.8L312.2 185.8Z" fill="#008595" stroke="#008595"></path><path d="M312.2 185.8L276.7 131.4L267.7 176.8Z" fill="#069ba8" stroke="#069ba8"></path><path d="M226.3 462.5L279.7 453.5L234.3 414.1Z" fill="#018c9b" stroke="#018c9b"></path><path d="M323.2 135.4L276.7 131.4L312.2 185.8Z" fill="#008191" stroke="#008191"></path><path d="M134.4 222.3L97.9 275.7L138.4 269.7Z" fill="#0ba3ae" stroke="#0ba3ae"></path><path d="M133.4 312.2L95.9 315.2L133.4 354.6Z" fill="#007d8e" stroke="#007d8e"></path><path d="M366.6 409.1L410.1 366.6L355.6 364.6Z" fill="#0394a1" stroke="#0394a1"></path><path d="M448.5 271.7L410.1 222.3L405.1 270.7Z" fill="#099fab" stroke="#099fab"></path><path d="M405.1 270.7L410.1 222.3L364.6 219.3Z" fill="#018c9b" stroke="#018c9b"></path><path d="M97.9 275.7L95.9 315.2L133.4 312.2Z" fill="#069ba8" stroke="#069ba8"></path><path d="M133.4 354.6L131.4 402.1L177.8 407.1Z" fill="#007d8e" stroke="#007d8e"></path><path d="M89.9 355.6L131.4 402.1L133.4 354.6Z" fill="#0598a4" stroke="#0598a4"></path><path d="M177.8 407.1L226.3 462.5L234.3 414.1Z" fill="#0ba3ae" stroke="#0ba3ae"></path><path d="M367.6 175.8L323.2 135.4L312.2 185.8Z" fill="#02909e" stroke="#02909e"></path><path d="M173.8 459.5L226.3 462.5L177.8 407.1Z" fill="#008191" stroke="#008191"></path><path d="M173.8 173.8L131.4 178.8L134.4 222.3Z" fill="#099fab" stroke="#099fab"></path><path d="M134.4 222.3L92.9 221.3L97.9 275.7Z" fill="#099fab" stroke="#099fab"></path><path d="M136.4 140.4L131.4 178.8L173.8 173.8Z" fill="#018c9b" stroke="#018c9b"></path><path d="M410.1 222.3L405.1 183.8L364.6 219.3Z" fill="#018c9b" stroke="#018c9b"></path><path d="M367.6 175.8L359.6 134.4L323.2 135.4Z" fill="#0598a4" stroke="#0598a4"></path><path d="M42.5 314.2L89.9 355.6L95.9 315.2Z" fill="#008595" stroke="#008595"></path><path d="M95.9 315.2L89.9 355.6L133.4 354.6Z" fill="#018c9b" stroke="#018c9b"></path><path d="M98.9 189.8L92.9 221.3L134.4 222.3Z" fill="#0598a4" stroke="#0598a4"></path><path d="M41.5 279.7L42.5 314.2L95.9 315.2Z" fill="#008191" stroke="#008191"></path><path d="M224.3 91.9L180.8 127.4L230.3 140.4Z" fill="#008191" stroke="#008191"></path><path d="M230.3 140.4L180.8 127.4L173.8 173.8Z" fill="#0598a4" stroke="#0598a4"></path><path d="M128.4 450.5L177.8 407.1L131.4 402.1Z" fill="#008898" stroke="#008898"></path><path d="M128.4 450.5L173.8 459.5L177.8 407.1Z" fill="#0394a1" stroke="#0394a1"></path><path d="M401.1 139.4L359.6 134.4L367.6 175.8Z" fill="#007d8e" stroke="#007d8e"></path><path d="M269.7 81.9L224.3 91.9L276.7 131.4Z" fill="#007d8e" stroke="#007d8e"></path><path d="M276.7 131.4L224.3 91.9L230.3 140.4Z" fill="#0394a1" stroke="#0394a1"></path><path d="M403.1 461.5L416.1 402.1L366.6 409.1Z" fill="#008191" stroke="#008191"></path><path d="M366.6 409.1L416.1 402.1L410.1 366.6Z" fill="#099fab" stroke="#099fab"></path><path d="M457.5 323.2L448.5 271.7L414.1 321.2Z" fill="#008898" stroke="#008898"></path><path d="M414.1 321.2L448.5 271.7L405.1 270.7Z" fill="#008191" stroke="#008191"></path><path d="M410.1 222.3L451.5 187.8L405.1 183.8Z" fill="#008898" stroke="#008898"></path><path d="M449.5 355.6L414.1 321.2L410.1 366.6Z" fill="#007d8e" stroke="#007d8e"></path><path d="M313.2 445.5L355.6 459.5L366.6 409.1Z" fill="#069ba8" stroke="#069ba8"></path><path d="M313.2 500L355.6 459.5L313.2 445.5Z" fill="#069ba8" stroke="#069ba8"></path><path d="M313.2 500L313.2 445.5L279.7 453.5Z" fill="#02909e" stroke="#02909e"></path><path d="M96.9 140.4L98.9 189.8L131.4 178.8Z" fill="#007d8e" stroke="#007d8e"></path><path d="M131.4 178.8L98.9 189.8L134.4 222.3Z" fill="#008898" stroke="#008898"></path><path d="M416.1 402.1L449.5 355.6L410.1 366.6Z" fill="#0394a1" stroke="#0394a1"></path><path d="M449.5 355.6L457.5 323.2L414.1 321.2Z" fill="#0598a4" stroke="#0598a4"></path><path d="M180.8 127.4L136.4 140.4L173.8 173.8Z" fill="#0394a1" stroke="#0394a1"></path><path d="M89.9 355.6L94.9 412.1L131.4 402.1Z" fill="#007d8e" stroke="#007d8e"></path><path d="M94.9 412.1L128.4 450.5L131.4 402.1Z" fill="#008191" stroke="#008191"></path><path d="M234.3 500L263.7 500L226.3 462.5Z" fill="#0394a1" stroke="#0394a1"></path><path d="M226.3 462.5L263.7 500L279.7 453.5Z" fill="#018c9b" stroke="#018c9b"></path><path d="M234.3 500L226.3 462.5L181.8 500Z" fill="#007d8e" stroke="#007d8e"></path><path d="M317.2 95.9L276.7 131.4L323.2 135.4Z" fill="#008191" stroke="#008191"></path><path d="M180.8 127.4L134.4 84.9L136.4 140.4Z" fill="#018c9b" stroke="#018c9b"></path><path d="M359.6 134.4L317.2 95.9L323.2 135.4Z" fill="#007d8e" stroke="#007d8e"></path><path d="M181.8 500L226.3 462.5L173.8 459.5Z" fill="#099fab" stroke="#099fab"></path><path d="M405.1 183.8L401.1 139.4L367.6 175.8Z" fill="#007d8e" stroke="#007d8e"></path><path d="M359.6 134.4L361.6 82.9L317.2 95.9Z" fill="#008191" stroke="#008191"></path><path d="M452.5 139.4L401.1 139.4L405.1 183.8Z" fill="#0598a4" stroke="#0598a4"></path><path d="M263.7 500L313.2 500L279.7 453.5Z" fill="#0598a4" stroke="#0598a4"></path><path d="M355.6 459.5L403.1 461.5L366.6 409.1Z" fill="#007d8e" stroke="#007d8e"></path><path d="M317.2 95.9L269.7 81.9L276.7 131.4Z" fill="#069ba8" stroke="#069ba8"></path><path d="M500 230.3L461.5 220.3L448.5 271.7Z" fill="#099fab" stroke="#099fab"></path><path d="M448.5 271.7L461.5 220.3L410.1 222.3Z" fill="#007d8e" stroke="#007d8e"></path><path d="M218.3 36.5L180.8 92.9L224.3 91.9Z" fill="#018c9b" stroke="#018c9b"></path><path d="M224.3 91.9L180.8 92.9L180.8 127.4Z" fill="#069ba8" stroke="#069ba8"></path><path d="M461.5 220.3L451.5 187.8L410.1 222.3Z" fill="#018c9b" stroke="#018c9b"></path><path d="M359.6 500L403.1 461.5L355.6 459.5Z" fill="#0598a4" stroke="#0598a4"></path><path d="M416.1 402.1L450.5 408.1L449.5 355.6Z" fill="#008898" stroke="#008898"></path><path d="M41.5 279.7L95.9 315.2L97.9 275.7Z" fill="#0ba3ae" stroke="#0ba3ae"></path><path d="M89.9 355.6L51.5 364.6L94.9 412.1Z" fill="#02909e" stroke="#02909e"></path><path d="M41.5 279.7L97.9 275.7L37.5 231.3Z" fill="#008191" stroke="#008191"></path><path d="M132.4 500L181.8 500L173.8 459.5Z" fill="#008898" stroke="#008898"></path><path d="M37.5 231.3L97.9 275.7L92.9 221.3Z" fill="#0ba3ae" stroke="#0ba3ae"></path><path d="M455.5 447.5L450.5 408.1L416.1 402.1Z" fill="#018c9b" stroke="#018c9b"></path><path d="M500 319.2L500 274.7L457.5 323.2Z" fill="#0ba3ae" stroke="#0ba3ae"></path><path d="M42.5 314.2L51.5 364.6L89.9 355.6Z" fill="#018c9b" stroke="#018c9b"></path><path d="M94.9 412.1L98.9 462.5L128.4 450.5Z" fill="#018c9b" stroke="#018c9b"></path><path d="M136.4 140.4L96.9 140.4L131.4 178.8Z" fill="#018c9b" stroke="#018c9b"></path><path d="M38.5 181.8L37.5 231.3L92.9 221.3Z" fill="#008898" stroke="#008898"></path><path d="M134.4 84.9L96.9 140.4L136.4 140.4Z" fill="#02909e" stroke="#02909e"></path><path d="M313.2 500L359.6 500L355.6 459.5Z" fill="#008898" stroke="#008898"></path><path d="M38.5 181.8L92.9 221.3L98.9 189.8Z" fill="#0394a1" stroke="#0394a1"></path><path d="M41.5 279.7L0 312.2L42.5 314.2Z" fill="#069ba8" stroke="#069ba8"></path><path d="M40.5 459.5L98.9 462.5L94.9 412.1Z" fill="#008898" stroke="#008898"></path><path d="M128.4 450.5L132.4 500L173.8 459.5Z" fill="#008898" stroke="#008898"></path><path d="M316.2 39.5L272.7 39.5L269.7 81.9Z" fill="#018c9b" stroke="#018c9b"></path><path d="M410.1 94.9L361.6 82.9L359.6 134.4Z" fill="#02909e" stroke="#02909e"></path><path d="M410.1 94.9L359.6 134.4L401.1 139.4Z" fill="#007d8e" stroke="#007d8e"></path><path d="M457.5 323.2L500 274.7L448.5 271.7Z" fill="#099fab" stroke="#099fab"></path><path d="M500 180.8L452.5 139.4L451.5 187.8Z" fill="#0ba3ae" stroke="#0ba3ae"></path><path d="M500 319.2L457.5 323.2L500 363.6Z" fill="#0394a1" stroke="#0394a1"></path><path d="M500 363.6L457.5 323.2L449.5 355.6Z" fill="#0598a4" stroke="#0598a4"></path><path d="M98.9 462.5L132.4 500L128.4 450.5Z" fill="#099fab" stroke="#099fab"></path><path d="M51.5 364.6L45.5 406.1L94.9 412.1Z" fill="#099fab" stroke="#099fab"></path><path d="M98.9 462.5L97.9 500L132.4 500Z" fill="#018c9b" stroke="#018c9b"></path><path d="M0 401.1L45.5 406.1L51.5 364.6Z" fill="#008191" stroke="#008191"></path><path d="M0 359.6L51.5 364.6L42.5 314.2Z" fill="#02909e" stroke="#02909e"></path><path d="M180.8 92.9L134.4 84.9L180.8 127.4Z" fill="#018c9b" stroke="#018c9b"></path><path d="M138.4 44.5L134.4 84.9L180.8 92.9Z" fill="#0ba3ae" stroke="#0ba3ae"></path><path d="M500 180.8L451.5 187.8L461.5 220.3Z" fill="#008191" stroke="#008191"></path><path d="M451.5 187.8L452.5 139.4L405.1 183.8Z" fill="#02909e" stroke="#02909e"></path><path d="M403.1 461.5L455.5 447.5L416.1 402.1Z" fill="#008898" stroke="#008898"></path><path d="M450.5 408.1L500 363.6L449.5 355.6Z" fill="#018c9b" stroke="#018c9b"></path><path d="M448.5 500L455.5 447.5L403.1 461.5Z" fill="#069ba8" stroke="#069ba8"></path><path d="M500 274.7L500 230.3L448.5 271.7Z" fill="#0598a4" stroke="#0598a4"></path><path d="M500 405.1L500 363.6L450.5 408.1Z" fill="#008898" stroke="#008898"></path><path d="M452.5 139.4L410.1 94.9L401.1 139.4Z" fill="#0598a4" stroke="#0598a4"></path><path d="M43.5 131.4L38.5 181.8L96.9 140.4Z" fill="#0598a4" stroke="#0598a4"></path><path d="M96.9 140.4L38.5 181.8L98.9 189.8Z" fill="#008595" stroke="#008595"></path><path d="M316.2 39.5L269.7 81.9L317.2 95.9Z" fill="#069ba8" stroke="#069ba8"></path><path d="M269.7 81.9L218.3 36.5L224.3 91.9Z" fill="#069ba8" stroke="#069ba8"></path><path d="M316.2 39.5L317.2 95.9L361.6 82.9Z" fill="#008595" stroke="#008595"></path><path d="M359.6 500L415.1 500L403.1 461.5Z" fill="#0394a1" stroke="#0394a1"></path><path d="M356.6 36.5L316.2 39.5L361.6 82.9Z" fill="#099fab" stroke="#099fab"></path><path d="M0 268.7L41.5 279.7L37.5 231.3Z" fill="#0ba3ae" stroke="#0ba3ae"></path><path d="M0 268.7L0 312.2L41.5 279.7Z" fill="#069ba8" stroke="#069ba8"></path><path d="M234.3 0L218.3 36.5L272.7 39.5Z" fill="#069ba8" stroke="#069ba8"></path><path d="M272.7 39.5L218.3 36.5L269.7 81.9Z" fill="#099fab" stroke="#099fab"></path><path d="M44.5 500L97.9 500L98.9 462.5Z" fill="#018c9b" stroke="#018c9b"></path><path d="M0 220.3L0 268.7L37.5 231.3Z" fill="#008595" stroke="#008595"></path><path d="M455.5 447.5L500 405.1L450.5 408.1Z" fill="#0ba3ae" stroke="#0ba3ae"></path><path d="M500 451.5L500 405.1L455.5 447.5Z" fill="#007d8e" stroke="#007d8e"></path><path d="M500 230.3L500 180.8L461.5 220.3Z" fill="#069ba8" stroke="#069ba8"></path><path d="M452.5 139.4L462.5 96.9L410.1 94.9Z" fill="#0ba3ae" stroke="#0ba3ae"></path><path d="M218.3 36.5L180.8 39.5L180.8 92.9Z" fill="#02909e" stroke="#02909e"></path><path d="M134.4 84.9L96.9 81.9L96.9 140.4Z" fill="#008191" stroke="#008191"></path><path d="M138.4 44.5L96.9 81.9L134.4 84.9Z" fill="#008191" stroke="#008191"></path><path d="M0 312.2L0 359.6L42.5 314.2Z" fill="#069ba8" stroke="#069ba8"></path><path d="M45.5 406.1L40.5 459.5L94.9 412.1Z" fill="#008191" stroke="#008191"></path><path d="M38.5 181.8L0 220.3L37.5 231.3Z" fill="#008898" stroke="#008898"></path><path d="M0 181.8L0 220.3L38.5 181.8Z" fill="#008898" stroke="#008898"></path><path d="M96.9 81.9L43.5 131.4L96.9 140.4Z" fill="#008595" stroke="#008595"></path><path d="M400.1 43.5L356.6 36.5L361.6 82.9Z" fill="#0394a1" stroke="#0394a1"></path><path d="M310.2 0L269.7 0L272.7 39.5Z" fill="#008595" stroke="#008595"></path><path d="M400.1 43.5L361.6 82.9L410.1 94.9Z" fill="#099fab" stroke="#099fab"></path><path d="M0 456.5L40.5 459.5L45.5 406.1Z" fill="#0598a4" stroke="#0598a4"></path><path d="M415.1 500L448.5 500L403.1 461.5Z" fill="#018c9b" stroke="#018c9b"></path><path d="M180.8 39.5L138.4 44.5L180.8 92.9Z" fill="#069ba8" stroke="#069ba8"></path><path d="M0 359.6L0 401.1L51.5 364.6Z" fill="#0ba3ae" stroke="#0ba3ae"></path><path d="M500 134.4L462.5 96.9L452.5 139.4Z" fill="#018c9b" stroke="#018c9b"></path><path d="M0 144.4L0 181.8L38.5 181.8Z" fill="#069ba8" stroke="#069ba8"></path><path d="M500 500L500 451.5L455.5 447.5Z" fill="#018c9b" stroke="#018c9b"></path><path d="M448.5 40.5L400.1 43.5L410.1 94.9Z" fill="#008191" stroke="#008191"></path><path d="M500 180.8L500 134.4L452.5 139.4Z" fill="#0598a4" stroke="#0598a4"></path><path d="M310.2 0L316.2 39.5L358.6 0Z" fill="#018c9b" stroke="#018c9b"></path><path d="M310.2 0L272.7 39.5L316.2 39.5Z" fill="#008191" stroke="#008191"></path><path d="M218.3 36.5L189.8 0L180.8 39.5Z" fill="#0394a1" stroke="#0394a1"></path><path d="M180.8 39.5L138.4 0L138.4 44.5Z" fill="#02909e" stroke="#02909e"></path><path d="M269.7 0L234.3 0L272.7 39.5Z" fill="#008898" stroke="#008898"></path><path d="M0 500L44.5 500L40.5 459.5Z" fill="#008595" stroke="#008595"></path><path d="M40.5 459.5L44.5 500L98.9 462.5Z" fill="#008898" stroke="#008898"></path><path d="M358.6 0L316.2 39.5L356.6 36.5Z" fill="#099fab" stroke="#099fab"></path><path d="M0 86.9L0 144.4L43.5 131.4Z" fill="#0ba3ae" stroke="#0ba3ae"></path><path d="M43.5 131.4L0 144.4L38.5 181.8Z" fill="#0598a4" stroke="#0598a4"></path><path d="M39.5 89.9L43.5 131.4L96.9 81.9Z" fill="#007d8e" stroke="#007d8e"></path><path d="M138.4 44.5L95.9 42.5L96.9 81.9Z" fill="#02909e" stroke="#02909e"></path><path d="M138.4 0L95.9 42.5L138.4 44.5Z" fill="#007d8e" stroke="#007d8e"></path><path d="M47.5 40.5L39.5 89.9L96.9 81.9Z" fill="#0394a1" stroke="#0394a1"></path><path d="M234.3 0L189.8 0L218.3 36.5Z" fill="#099fab" stroke="#099fab"></path><path d="M0 401.1L0 456.5L45.5 406.1Z" fill="#007d8e" stroke="#007d8e"></path><path d="M462.5 96.9L448.5 40.5L410.1 94.9Z" fill="#0598a4" stroke="#0598a4"></path><path d="M500 134.4L500 98.9L462.5 96.9Z" fill="#008191" stroke="#008191"></path><path d="M400.1 43.5L358.6 0L356.6 36.5Z" fill="#0ba3ae" stroke="#0ba3ae"></path><path d="M405.1 0L358.6 0L400.1 43.5Z" fill="#0ba3ae" stroke="#0ba3ae"></path><path d="M448.5 500L500 500L455.5 447.5Z" fill="#069ba8" stroke="#069ba8"></path><path d="M500 43.5L448.5 40.5L462.5 96.9Z" fill="#007d8e" stroke="#007d8e"></path><path d="M189.8 0L138.4 0L180.8 39.5Z" fill="#099fab" stroke="#099fab"></path><path d="M95.9 42.5L47.5 40.5L96.9 81.9Z" fill="#008191" stroke="#008191"></path><path d="M448.5 40.5L405.1 0L400.1 43.5Z" fill="#0598a4" stroke="#0598a4"></path><path d="M53.5 0L47.5 40.5L95.9 42.5Z" fill="#0ba3ae" stroke="#0ba3ae"></path><path d="M39.5 89.9L0 86.9L43.5 131.4Z" fill="#099fab" stroke="#099fab"></path><path d="M0 456.5L0 500L40.5 459.5Z" fill="#018c9b" stroke="#018c9b"></path><path d="M0 42.5L0 86.9L39.5 89.9Z" fill="#099fab" stroke="#099fab"></path><path d="M138.4 0L96.9 0L95.9 42.5Z" fill="#099fab" stroke="#099fab"></path><path d="M500 98.9L500 43.5L462.5 96.9Z" fill="#0394a1" stroke="#0394a1"></path><path d="M448.5 40.5L461.5 0L405.1 0Z" fill="#008191" stroke="#008191"></path><path d="M500 43.5L461.5 0L448.5 40.5Z" fill="#008898" stroke="#008898"></path><path d="M96.9 0L53.5 0L95.9 42.5Z" fill="#099fab" stroke="#099fab"></path><path d="M47.5 40.5L0 42.5L39.5 89.9Z" fill="#02909e" stroke="#02909e"></path><path d="M0 0L0 42.5L47.5 40.5Z" fill="#018c9b" stroke="#018c9b"></path><path d="M500 43.5L500 0L461.5 0Z" fill="#0598a4" stroke="#0598a4"></path><path d="M53.5 0L0 0L47.5 40.5Z" fill="#018c9b" stroke="#018c9b"></path></g></svg>